<svg xmlns="http://www.w3.org/2000/svg" viewBox="6 -4 640 640"><circle cx="326" cy="316" r="315" fill="#fff"/><path d="M325-4c90 0 166 31 227 93 62 62 93 138 93 227 0 90-30 165-91 225-65 64-141 95-229 95-86 0-162-31-225-94S6 404 6 316s31-163 94-227Q193-4 325-4m1 58c-73 0-134 26-185 77q-78 79.5-78 186c0 106 26 132 78 184s114 78 185 78 133-26 186-78c50-48 75-110 75-183s-26-135-77-186-112-78-184-78m86 183v131h-37v155h-99V368h-37V237q0-9 6-15c6-6 9-6 15-6h131c5 0 10 2 14 6s7 9 7 15m-131-82c0-30 15-45.2 45-45 32.2.251 45 15 45 45s-15 45-45 45-45-15-45-45"/></svg>