<svg version="1.1" viewBox="6 -4 640 640" xmlns="http://www.w3.org/2000/svg"><circle cx="326" cy="316" r="315" fill="#fff" stroke-width="11"/><path d="m325-4c90 0 166 31 227 93 62 62 93 138 93 227 0 90-30 165-91 225-65 64-141 95-229 95-86 0-162-31-225-94s-94-138-94-226 31-163 94-227c62-62 137-93 225-93zm1 58c-73 0-134 26-185 77-52 53-78 115-78 186s26 132 78 184 114 78 185 78 133-26 186-78c50-48 75-110 75-183s-26-135-77-186-112-78-184-78zm86 183v131h-37v155h-99v-155h-37v-131c0-6 2-11 6-15s9-6 15-6h131c5 0 10 2 14 6s7 9 7 15zm-131-82c0-30 15-45 45-45s45 15 45 45-15 45-45 45-45-15-45-45z" stroke-width="10"/></svg>
