<svg viewBox="6 -4 640 640" xmlns="http://www.w3.org/2000/svg">
<circle cx="326" cy="316" r="320" fill="#fff" stroke-width="11"/>
<path d="m325-4c90 0 166 31 227 93 62 62 93 138 93 227 0 90-30 165-91 225-65 64-141 95-229 95-86 0-162-31-225-94-63-63-94-138-94-226 0-88 31-163 94-227 62-62 137-93 225-93zm1 58c-73 0-134 26-185 77-52 53-78 115-78 186 0 71 26 132 78 184 52 52 114 78 185 78 71 0 133-26 186-78 50-48 75-110 75-183 0-73-26-135-77-186-51-51-113-77-185-77zm86 183v131h-37v155h-99v-155h-37v-131c0-6 2-11 6-15 4-4 9-6 15-6h131c5 0 10 2 14 6 4 4 6 9 6 15zm-131-82c0-30 15-45 45-45s45 15 45 45c0 30-15 45-45 45s-45-15-45-45z" stroke-width="10"/>
</svg>
