<svg width="64px" height="64px" enable-background="new 5.5 -3.5 64 64" version="1.0" viewBox="5.5 -3.5 64 64" xml:space="preserve" xmlns="http://www.w3.org/2000/svg">

	<circle cx="37.6" cy="28.8" r="28.3" fill="#fff"/>
	
		<path d="m37.4-3.5c8.99 0 16.6 3.08 22.7 9.26 6.21 6.21 9.32 13.8 9.32 22.7 0 8.99-3.05 16.5-9.14 22.5-6.48 6.36-14.1 9.54-22.9 9.54-8.65 0-16.2-3.14-22.5-9.43-6.28-6.29-9.43-13.8-9.43-22.6 0-8.76 3.14-16.3 9.43-22.7 6.17-6.17 13.7-9.26 22.5-9.26zm0.114 5.77c-7.28 0-13.4 2.55-18.5 7.66-5.22 5.33-7.83 11.5-7.83 18.6 0 7.09 2.59 13.2 7.77 18.4 5.18 5.18 11.4 7.77 18.5 7.77 7.12 0 13.3-2.61 18.6-7.83 5.03-4.84 7.54-11 7.54-18.3 0-7.28-2.55-13.5-7.66-18.6-5.1-5.1-11.3-7.66-18.5-7.66zm8.57 18.3v13.1h-3.66v15.5h-9.94v-15.5h-3.66v-13.1c0-0.572 0.2-1.06 0.599-1.46 0.401-0.399 0.887-0.6 1.46-0.6h13.1c0.533 0 1.01 0.2 1.43 0.6 0.417 0.4 0.628 0.886 0.628 1.46zm-13.1-8.23c0-3.01 1.48-4.51 4.46-4.51s4.46 1.5 4.46 4.51c0 2.97-1.49 4.46-4.46 4.46s-4.46-1.49-4.46-4.46z"/>
	

</svg>
