<svg version="1.1" viewBox="0 0 640 640" xmlns="http://www.w3.org/2000/svg"><circle cx="320" cy="320" r="288" fill="#fff"/><path d="m318 0c90 0 166 31 229 94 30 30 53 65 69 103 16 39 23 80 23 123 0 44-8 85-23 123s-38 72-68 101c-31 31-67 55-106 71-40 16-81 25-123 25s-83-8-121-24c-39-16-73-40-104-70-31-31-54-65-70-104s-24-79-24-122c0-42 8-83 24-122s40-74 71-105c61-62 136-93 225-93zm1 58c-73 0-135 26-185 77-25 26-45 54-58 86s-20 65-20 100c0 34 7 67 20 99 14 32 33 60 58 85s54 44 85 57c32 13 65 20 99 20s68-7 100-20 61-33 87-58c50-49 75-110 75-183 0-35-6-69-19-101s-32-60-57-85c-52-51-113-77-186-77zm-4 209-43 22c-5-10-10-16-17-20s-13-6-19-6c-29 0-43 19-43 57 0 17 4 31 11 41s18 15 32 15c19 0 32-9 39-27l39 20c-8 16-20 28-35 37s-31 13-49 13c-29 0-52-9-69-26-18-18-26-42-26-73s9-55 27-73 40-27 67-27c40-0.02 68 15 85 46zm185 0-42 22c-5-10-10-16-17-20s-13-6-19-6c-29 0-43 19-43 57 0 17 4 31 11 41s18 15 32 15c19 0 32-9 39-27l40 20c-9 16-21 28-35 37-15 9-31 13-49 13-29 0-52-9-69-26-17-18-26-42-26-73s9-55 27-73 40-27 67-27c40-0.02 68 15 85 46z" stroke-width="10"/></svg>
