<svg viewBox="0 0 640 640" xmlns="http://www.w3.org/2000/svg">
<circle cx="320" cy="320" r="288" fill="#fff"/>
<path d="m324-2c90 0 166 31 229 94 30 30 53 65 69 103 16 39 23 80 23 123 0 44-8 85-23 123-15 38-38 72-68 101-31 31-67 55-106 71-40 16-81 25-123 25-42 0-83-8-121-24-39-16-73-40-104-70-31-31-54-65-70-104s-24-79-24-122c0-42 8-83 24-122 16-39 40-74 71-105 61-62 136-93 225-93zm1 58c-73 0-135 26-185 77-25 26-45 54-58 86s-20 65-20 100c0 34 7 67 20 99 14 32 33 60 58 85 25 25 54 44 85 57 32 13 65 20 99 20 34 0 68-7 100-20 32-13 61-33 87-58 50-49 75-110 75-183 0-35-6-69-19-101-13-32-32-60-57-85-52-51-113-77-186-77zm-4 209-43 22c-5-10-10-16-17-20-7-4-13-6-19-6-29 0-43 19-43 57 0 17 4 31 11 41 7 10 18 15 32 15 19 0 32-9 39-27l39 20c-8 16-20 28-35 37-15 9-31 13-49 13-29 0-52-9-69-26-18-18-26-42-26-73 0-31 9-55 27-73 18-18 40-27 67-27 40-0.02 68 15 85 46zm185 0-42 22c-5-10-10-16-17-20-7-4-13-6-19-6-29 0-43 19-43 57 0 17 4 31 11 41 7 10 18 15 32 15 19 0 32-9 39-27l40 20c-9 16-21 28-35 37-15 9-31 13-49 13-29 0-52-9-69-26-17-18-26-42-26-73 0-31 9-55 27-73 18-18 40-27 67-27 40-0.02 68 15 85 46z" stroke-width="10"/>
</svg>
