<svg width="64px" height="64px" enable-background="new 5.5 -3.5 64 64" version="1.0" viewBox="5.5 -3.5 64 64" xml:space="preserve" xmlns="http://www.w3.org/2000/svg">

	<circle cx="37.8" cy="28.5" r="28.8" fill="#fff"/>
	<path d="m37.4-3.5c8.95 0 16.6 3.12 22.9 9.37 3.01 3.01 5.3 6.45 6.86 10.3 1.56 3.87 2.34 7.97 2.34 12.3 0 4.38-0.773 8.49-2.31 12.3-1.54 3.83-3.82 7.21-6.83 10.1-3.12 3.08-6.67 5.45-10.6 7.09-3.96 1.64-8.06 2.46-12.3 2.46s-8.28-0.808-12.1-2.43c-3.87-1.62-7.33-3.96-10.4-7.03s-5.4-6.52-7-10.4-2.4-7.9-2.4-12.2c0-4.23 0.809-8.3 2.43-12.2s3.97-7.4 7.06-10.5c6.1-6.21 13.6-9.31 22.5-9.31zm0.116 5.77c-7.31 0-13.5 2.55-18.5 7.66-2.52 2.55-4.45 5.42-5.8 8.6-1.35 3.18-2.03 6.5-2.03 9.97 0 3.43 0.675 6.73 2.03 9.91 1.35 3.18 3.28 6.02 5.8 8.52 2.51 2.5 5.35 4.4 8.52 5.72 3.16 1.31 6.48 1.97 9.94 1.97 3.43 0 6.75-0.665 9.97-2 3.22-1.34 6.12-3.26 8.71-5.77 4.99-4.88 7.48-11 7.48-18.3 0-3.54-0.648-6.9-1.94-10.1-1.29-3.16-3.18-5.98-5.65-8.46-5.15-5.14-11.3-7.72-18.6-7.72zm-0.401 20.9-4.29 2.23c-0.458-0.951-1.02-1.62-1.68-2-0.667-0.38-1.29-0.571-1.86-0.571-2.86 0-4.29 1.88-4.29 5.66 0 1.71 0.362 3.08 1.08 4.11 0.724 1.03 1.79 1.54 3.2 1.54 1.87 0 3.18-0.915 3.94-2.74l3.94 2c-0.838 1.56-2 2.79-3.49 3.69-1.48 0.896-3.12 1.34-4.91 1.34-2.86 0-5.16-0.875-6.92-2.63-1.75-1.75-2.63-4.19-2.63-7.31 0-3.05 0.886-5.47 2.66-7.26 1.77-1.79 4.01-2.69 6.72-2.69 3.96-2e-3 6.8 1.54 8.52 4.63zm18.5 0-4.23 2.23c-0.457-0.951-1.02-1.62-1.69-2-0.668-0.38-1.31-0.571-1.91-0.571-2.86 0-4.29 1.88-4.29 5.66 0 1.71 0.363 3.08 1.09 4.11s1.79 1.54 3.2 1.54c1.86 0 3.18-0.915 3.94-2.74l4 2c-0.875 1.56-2.06 2.79-3.54 3.69-1.49 0.896-3.1 1.34-4.86 1.34-2.9 0-5.21-0.875-6.94-2.63-1.74-1.75-2.6-4.19-2.6-7.31 0-3.05 0.885-5.47 2.66-7.26 1.77-1.79 4.01-2.69 6.71-2.69 3.96-2e-3 6.78 1.54 8.46 4.63z"/>

</svg>
