<svg xmlns="http://www.w3.org/2000/svg" version="1.1" xmlns:xlink="http://www.w3.org/1999/xlink" width="962" height="924"><svg width="962" height="924" version="1.1" viewBox="0 0 962 924" xmlns="http://www.w3.org/2000/svg">
 <g transform="translate(-37.8 -42.1)">
  <path transform="matrix(1.93 0 0 1.93 -462 717)" d="m499-81.1c24.6 23.6-14.9 44.1-36.1 37.7-42.2-12.7-48.6-66.9-29.6-101 30.5-54.1 104-60.8 153-28 66 44.7 73.1 139 27.4 200-57.5 77.7-171 85-245 27.3-89.1-69.5-96.7-202-27.3-288 80.9-100 232-108 330-27.5 20.3 16.8 37.8 36.8 51.9 59" fill="none" stroke="#4885c8" stroke-linecap="round" stroke-width="70.8"></path>
 </g>
</svg><style>@media (prefers-color-scheme: light) { :root { filter: none; } }
@media (prefers-color-scheme: dark) { :root { filter: none; } }
</style></svg>