<svg viewBox="0 0 640 640" xmlns="http://www.w3.org/2000/svg">
<circle cx="326" cy="316" r="320" fill="#fff" stroke-width="11"/>
<path d="m325-3c90 0 165 31 227 93 62 62 93 137 93 227 0 90-31 165-91 225-64 63-141 95-229 95-87 0-162-31-225-94-63-63-94-138-94-226 0-87 31-163 94-227 62-62 137-93 225-93zm1 58c-73 0-134 26-185 77-52 53-78 115-78 185 0 71 26 133 78 184 52 52 114 78 185 78 71 0 133-26 186-78 50-49 75-110 75-183 0-73-26-135-77-185-51-51-112-77-185-77zm-143 217c6-39 22-70 47-91s57-32 93-32c50 0 90 16 120 49 30 32 45 74 45 125 0 49-15 90-46 123-31 33-71 49-120 49-36 0-67-11-94-33-26-22-42-53-47-93h81c2 39 25 58 70 58 23 0 41-10 54-29 14-19 21-45 21-78 0-34-6-60-19-77-13-18-31-27-54-27-43 0-67 19-72 57h23l-63 63-63-63 25 0.01z" stroke-width="10"/>
</svg>
