<svg xmlns="http://www.w3.org/2000/svg" viewBox="0 0 640 640"><circle cx="320" cy="320" r="315" fill="#fff"/><path d="M319 0c90 0 165 31 227 93s93 137 93 227-31 165-91 225c-64 63-141 95-229 95-87 0-162-31-225-94S0 408 0 320c0-87 31-163 94-227Q187 0 319 0m3 59c-73 0-136 25-187 76-52 53-78 115-78 185 0 71 26 133 78 184 52 52 114 78 185 78s133-26 186-78q75-73.5 75-183c0-109.5-26-135-77-185-51-51-109-77-182-77M177 275c6-39 22-70 47-91s57-32 93-32c50 0 90 16 120 49 30 32 45 74 45 125 0 49-15 90-46 123s-71 49-120 49c-36 0-67-11-94-33-26-22-42-53-47-93h81c2 39 25 58 70 58 23 0 41-10 54-29q21-28.5 21-78c0-34-6-60-19-77q-19.5-27-54-27-64.5 0-72 57h23l-63 63-63-63 25 .01z"/></svg>