<svg version="1.1" viewBox="0 0 640 640" xmlns="http://www.w3.org/2000/svg"><circle cx="320" cy="320" r="315" fill="#fff" stroke-width="11"/><path d="m319 0c90 0 165 31 227 93s93 137 93 227-31 165-91 225c-64 63-141 95-229 95-87 0-162-31-225-94s-94-138-94-226c0-87 31-163 94-227 62-62 137-93 225-93zm3 59c-73 0-136 25-187 76-52 53-78 115-78 185 0 71 26 133 78 184 52 52 114 78 185 78s133-26 186-78c50-49 75-110 75-183s-26-135-77-185c-51-51-109-77-182-77zm-145 216c6-39 22-70 47-91s57-32 93-32c50 0 90 16 120 49 30 32 45 74 45 125 0 49-15 90-46 123s-71 49-120 49c-36 0-67-11-94-33-26-22-42-53-47-93h81c2 39 25 58 70 58 23 0 41-10 54-29 14-19 21-45 21-78 0-34-6-60-19-77-13-18-31-27-54-27-43 0-67 19-72 57h23l-63 63-63-63 25 0.01z" stroke-width="10"/></svg>
