<svg width="64px" height="64px" enable-background="new 5.5 -3.5 64 64" version="1.0" viewBox="5.5 -3.5 64 64" xml:space="preserve" xmlns="http://www.w3.org/2000/svg">

	<circle cx="36.9" cy="28.6" r="29.1" fill="#fff"/>
	
		<path d="m37.4-3.5c8.95 0 16.5 3.1 22.7 9.32 6.21 6.17 9.32 13.7 9.32 22.7 0 8.95-3.05 16.5-9.14 22.5-6.44 6.32-14.1 9.49-22.9 9.49-8.65 0-16.2-3.14-22.5-9.43-6.28-6.28-9.43-13.8-9.43-22.6 0-8.72 3.14-16.3 9.43-22.7 6.21-6.21 13.7-9.32 22.5-9.32zm0.114 5.77c-7.28 0-13.4 2.57-18.5 7.72-5.22 5.3-7.83 11.5-7.83 18.5 0 7.12 2.59 13.3 7.77 18.4 5.18 5.18 11.4 7.77 18.5 7.77 7.12 0 13.3-2.61 18.6-7.83 5.03-4.88 7.54-11 7.54-18.3 0-7.31-2.55-13.5-7.66-18.5-5.07-5.14-11.2-7.72-18.5-7.72zm-14.3 21.7c0.609-3.92 2.19-6.96 4.74-9.11 2.55-2.15 5.66-3.23 9.31-3.23 5.03 0 9.03 1.62 12 4.86 2.97 3.24 4.46 7.39 4.46 12.5 0 4.92-1.54 9-4.63 12.3-3.09 3.26-7.09 4.89-12 4.89-3.62 0-6.74-1.08-9.37-3.26-2.63-2.17-4.21-5.26-4.74-9.26h8.06c0.19 3.89 2.53 5.83 7.03 5.83 2.25 0 4.06-0.972 5.43-2.91 1.37-1.94 2.06-4.53 2.06-7.77 0-3.39-0.629-5.97-1.88-7.74-1.26-1.77-3.07-2.66-5.43-2.66-4.27 0-6.67 1.88-7.2 5.66h2.34l-6.34 6.34-6.34-6.34 2.51 1e-3z"/>
	

</svg>
