<?xml version="1.0" encoding="UTF-8" standalone="no"?>
<!-- Created with Inkscape (http://www.inkscape.org/) -->

<svg
   version="1.1"
   id="svg1"
   width="961.59625"
   height="924.1405"
   viewBox="0 0 961.59625 924.1405"
   xmlns="http://www.w3.org/2000/svg"
   xmlns:svg="http://www.w3.org/2000/svg">
  <defs
     id="defs1" />
  <g
     id="g1"
     transform="translate(-37.785755,-42.130142)">
    <path
       style="fill:none;fill-rule:evenodd;stroke:#262150;stroke-width:70.8;stroke-linecap:round;stroke-dasharray:none;stroke-opacity:1"
       id="path2"
       d="m 499.4884,-81.068802 c 24.62945,23.573901 -14.92914,44.112205 -36.1161,37.733234 -42.1605,-12.693685 -48.61982,-66.908182 -29.58127,-100.615022 30.54274,-54.07448 104.17835,-60.83478 152.67307,-27.98832 66.03765,44.72864 73.06676,138.628487 27.41008,200.353666 C 556.37327,106.15264 442.73413,113.44011 368.60731,55.672604 279.48042,-13.784555 271.9276,-146.54078 341.27436,-232.50229 c 80.85076,-100.22174 232.15723,-108.04832 329.52271,-27.54567 20.2816,16.769 37.83656,36.7827 51.89719,59.02393"
       transform="matrix(1.9278469,0,0,1.9278469,-462.10765,717.23719)" />
  </g>
</svg>
